<svg width="245" height="40" viewBox="0 0 245 40" fill="none" xmlns="http://www.w3.org/2000/svg">
            <g clip-path="url(#clip0_1_19)">
            <path d="M50.078 32.504C48.09 32.504 46.298 32.196 44.702 31.58C43.106 30.936 41.748 29.998 40.628 28.766C39.508 27.506 38.64 25.952 38.024 24.104C37.408 22.228 37.1 20.044 37.1 17.552C37.1 15.088 37.408 12.904 38.024 11C38.64 9.068 39.508 7.458 40.628 6.17C41.748 4.854 43.106 3.86 44.702 3.188C46.298 2.516 48.09 2.18 50.078 2.18C52.794 2.18 55.034 2.74 56.798 3.86C58.562 4.952 59.976 6.688 61.04 9.068L55.538 11.924C55.146 10.692 54.53 9.712 53.69 8.984C52.878 8.228 51.674 7.85 50.078 7.85C48.202 7.85 46.69 8.466 45.542 9.698C44.422 10.902 43.862 12.666 43.862 14.99V19.694C43.862 22.018 44.422 23.796 45.542 25.028C46.69 26.232 48.202 26.834 50.078 26.834C51.646 26.834 52.892 26.414 53.816 25.574C54.768 24.706 55.468 23.67 55.916 22.466L61.124 25.49C60.032 27.73 58.59 29.466 56.798 30.698C55.034 31.902 52.794 32.504 50.078 32.504ZM74.2014 32.504C72.5774 32.504 71.1214 32.238 69.8334 31.706C68.5734 31.174 67.4954 30.404 66.5994 29.396C65.7314 28.388 65.0594 27.17 64.5834 25.742C64.1074 24.314 63.8694 22.718 63.8694 20.954C63.8694 19.19 64.1074 17.594 64.5834 16.166C65.0594 14.738 65.7314 13.534 66.5994 12.554C67.4954 11.546 68.5734 10.776 69.8334 10.244C71.1214 9.712 72.5774 9.446 74.2014 9.446C75.8254 9.446 77.2674 9.712 78.5274 10.244C79.8154 10.776 80.8934 11.546 81.7614 12.554C82.6574 13.534 83.3434 14.738 83.8194 16.166C84.2954 17.594 84.5334 19.19 84.5334 20.954C84.5334 22.718 84.2954 24.314 83.8194 25.742C83.3434 27.17 82.6574 28.388 81.7614 29.396C80.8934 30.404 79.8154 31.174 78.5274 31.706C77.2674 32.238 75.8254 32.504 74.2014 32.504ZM74.2014 27.59C75.4334 27.59 76.3854 27.212 77.0574 26.456C77.7294 25.7 78.0654 24.622 78.0654 23.222V18.728C78.0654 17.328 77.7294 16.25 77.0574 15.494C76.3854 14.738 75.4334 14.36 74.2014 14.36C72.9694 14.36 72.0174 14.738 71.3454 15.494C70.6734 16.25 70.3374 17.328 70.3374 18.728V23.222C70.3374 24.622 70.6734 25.7 71.3454 26.456C72.0174 27.212 72.9694 27.59 74.2014 27.59ZM88.9625 32V9.95H95.1785V13.688H95.4305C95.8225 12.54 96.5085 11.546 97.4885 10.706C98.4685 9.866 99.8265 9.446 101.562 9.446C103.83 9.446 105.538 10.202 106.686 11.714C107.862 13.226 108.45 15.382 108.45 18.182V32H102.234V18.686C102.234 17.258 102.01 16.208 101.562 15.536C101.114 14.836 100.316 14.486 99.1685 14.486C98.6645 14.486 98.1745 14.556 97.6985 14.696C97.2225 14.808 96.7885 15.004 96.3965 15.284C96.0325 15.564 95.7385 15.914 95.5145 16.334C95.2905 16.726 95.1785 17.188 95.1785 17.72V32H88.9625ZM121.71 32C119.554 32 117.916 31.454 116.796 30.362C115.704 29.27 115.158 27.674 115.158 25.574V14.78H112.05V9.95H113.604C114.444 9.95 115.018 9.754 115.326 9.362C115.634 8.942 115.788 8.354 115.788 7.598V3.986H121.374V9.95H125.742V14.78H121.374V27.17H125.406V32H121.71ZM130.06 32V9.95H136.276V14.738H136.486C136.598 14.122 136.794 13.534 137.074 12.974C137.354 12.386 137.718 11.868 138.166 11.42C138.642 10.972 139.202 10.622 139.846 10.37C140.49 10.09 141.246 9.95 142.114 9.95H143.206V15.746H141.652C139.832 15.746 138.474 15.984 137.578 16.46C136.71 16.936 136.276 17.818 136.276 19.106V32H130.06ZM155.782 32.504C154.158 32.504 152.702 32.238 151.414 31.706C150.154 31.174 149.076 30.404 148.18 29.396C147.312 28.388 146.64 27.17 146.164 25.742C145.688 24.314 145.45 22.718 145.45 20.954C145.45 19.19 145.688 17.594 146.164 16.166C146.64 14.738 147.312 13.534 148.18 12.554C149.076 11.546 150.154 10.776 151.414 10.244C152.702 9.712 154.158 9.446 155.782 9.446C157.406 9.446 158.848 9.712 160.108 10.244C161.396 10.776 162.474 11.546 163.342 12.554C164.238 13.534 164.924 14.738 165.4 16.166C165.876 17.594 166.113 19.19 166.113 20.954C166.113 22.718 165.876 24.314 165.4 25.742C164.924 27.17 164.238 28.388 163.342 29.396C162.474 30.404 161.396 31.174 160.108 31.706C158.848 32.238 157.406 32.504 155.782 32.504ZM155.782 27.59C157.014 27.59 157.966 27.212 158.638 26.456C159.31 25.7 159.646 24.622 159.646 23.222V18.728C159.646 17.328 159.31 16.25 158.638 15.494C157.966 14.738 157.014 14.36 155.782 14.36C154.55 14.36 153.598 14.738 152.926 15.494C152.254 16.25 151.918 17.328 151.918 18.728V23.222C151.918 24.622 152.254 25.7 152.926 26.456C153.598 27.212 154.55 27.59 155.782 27.59ZM176.717 32C174.589 32 173.021 31.482 172.013 30.446C171.033 29.41 170.543 27.912 170.543 25.952V0.92H176.759V27.17H179.531V32H176.717ZM189.103 32C186.975 32 185.407 31.482 184.399 30.446C183.419 29.41 182.929 27.912 182.929 25.952V0.92H189.145V27.17H191.917V32H189.103ZM204.842 32.504C203.162 32.504 201.664 32.238 200.348 31.706C199.032 31.146 197.912 30.376 196.988 29.396C196.092 28.388 195.406 27.17 194.93 25.742C194.482 24.314 194.258 22.718 194.258 20.954C194.258 19.218 194.482 17.65 194.93 16.25C195.378 14.822 196.036 13.604 196.904 12.596C197.8 11.588 198.892 10.818 200.18 10.286C201.468 9.726 202.938 9.446 204.59 9.446C206.41 9.446 207.964 9.754 209.252 10.37C210.568 10.986 211.632 11.812 212.444 12.848C213.284 13.884 213.886 15.088 214.25 16.46C214.642 17.804 214.838 19.218 214.838 20.702V22.55H200.684V22.886C200.684 24.342 201.076 25.504 201.86 26.372C202.644 27.212 203.876 27.632 205.556 27.632C206.844 27.632 207.894 27.38 208.706 26.876C209.518 26.344 210.274 25.714 210.974 24.986L214.082 28.85C213.102 29.998 211.814 30.894 210.218 31.538C208.65 32.182 206.858 32.504 204.842 32.504ZM204.716 14.024C203.456 14.024 202.462 14.444 201.734 15.284C201.034 16.096 200.684 17.188 200.684 18.56V18.896H208.412V18.518C208.412 17.174 208.104 16.096 207.488 15.284C206.9 14.444 205.976 14.024 204.716 14.024ZM219.228 32V9.95H225.444V14.738H225.654C225.766 14.122 225.962 13.534 226.242 12.974C226.522 12.386 226.886 11.868 227.334 11.42C227.81 10.972 228.37 10.622 229.014 10.37C229.658 10.09 230.414 9.95 231.282 9.95H232.374V15.746H230.82C229 15.746 227.642 15.984 226.746 16.46C225.878 16.936 225.444 17.818 225.444 19.106V32H219.228Z" fill="white"/>
            <circle cx="11" cy="10" r="5" fill="#56549A"/>
            <circle cx="30" cy="10" r="5" fill="#2C2AAB" fill-opacity="0.8"/>
            <circle cx="30" cy="27" r="5" fill="#56549A" fill-opacity="0.7"/>
            <circle cx="11" cy="27" r="5" fill="#2C2AAB" fill-opacity="0.8"/>
            </g>
            <defs>
            <clipPath id="clip0_1_19">
            <rect width="245" height="40" fill="white"/>
            </clipPath>
            </defs>
            </svg>