<svg width="379" height="70" viewBox="0 0 379 70" fill="none" xmlns="http://www.w3.org/2000/svg">
<g clip-path="url(#clip0_1_2)">
<path d="M94.976 62.768C91.9467 62.768 89.216 62.2987 86.784 61.36C84.352 60.3787 82.2827 58.9493 80.576 57.072C78.8693 55.152 77.5467 52.784 76.608 49.968C75.6693 47.1093 75.2 43.7813 75.2 39.984C75.2 36.2293 75.6693 32.9013 76.608 30C77.5467 27.056 78.8693 24.6027 80.576 22.64C82.2827 20.6347 84.352 19.12 86.784 18.096C89.216 17.072 91.9467 16.56 94.976 16.56C99.1147 16.56 102.528 17.4133 105.216 19.12C107.904 20.784 110.059 23.4293 111.68 27.056L103.296 31.408C102.699 29.5307 101.76 28.0373 100.48 26.928C99.2427 25.776 97.408 25.2 94.976 25.2C92.1173 25.2 89.8133 26.1387 88.064 28.016C86.3573 29.8507 85.504 32.5387 85.504 36.08V43.248C85.504 46.7893 86.3573 49.4987 88.064 51.376C89.8133 53.2107 92.1173 54.128 94.976 54.128C97.3653 54.128 99.264 53.488 100.672 52.208C102.123 50.8853 103.189 49.3067 103.872 47.472L111.808 52.08C110.144 55.4933 107.947 58.1387 105.216 60.016C102.528 61.8507 99.1147 62.768 94.976 62.768ZM131.736 62.768C129.261 62.768 127.042 62.3627 125.08 61.552C123.16 60.7413 121.517 59.568 120.152 58.032C118.829 56.496 117.805 54.64 117.08 52.464C116.354 50.288 115.992 47.856 115.992 45.168C115.992 42.48 116.354 40.048 117.08 37.872C117.805 35.696 118.829 33.8613 120.152 32.368C121.517 30.832 123.16 29.6587 125.08 28.848C127.042 28.0373 129.261 27.632 131.736 27.632C134.21 27.632 136.408 28.0373 138.328 28.848C140.29 29.6587 141.933 30.832 143.256 32.368C144.621 33.8613 145.666 35.696 146.392 37.872C147.117 40.048 147.479 42.48 147.479 45.168C147.479 47.856 147.117 50.288 146.392 52.464C145.666 54.64 144.621 56.496 143.256 58.032C141.933 59.568 140.29 60.7413 138.328 61.552C136.408 62.3627 134.21 62.768 131.736 62.768ZM131.736 55.28C133.613 55.28 135.064 54.704 136.088 53.552C137.112 52.4 137.624 50.7573 137.624 48.624V41.776C137.624 39.6427 137.112 38 136.088 36.848C135.064 35.696 133.613 35.12 131.736 35.12C129.858 35.12 128.408 35.696 127.384 36.848C126.36 38 125.848 39.6427 125.848 41.776V48.624C125.848 50.7573 126.36 52.4 127.384 53.552C128.408 54.704 129.858 55.28 131.736 55.28ZM154.229 62V28.4H163.701V34.096H164.085C164.682 32.3467 165.727 30.832 167.221 29.552C168.714 28.272 170.783 27.632 173.429 27.632C176.885 27.632 179.487 28.784 181.237 31.088C183.029 33.392 183.925 36.6773 183.925 40.944V62H174.453V41.712C174.453 39.536 174.111 37.936 173.429 36.912C172.746 35.8453 171.53 35.312 169.781 35.312C169.013 35.312 168.266 35.4187 167.541 35.632C166.815 35.8027 166.154 36.1013 165.557 36.528C165.002 36.9547 164.554 37.488 164.213 38.128C163.871 38.7253 163.701 39.4293 163.701 40.24V62H154.229ZM204.13 62C200.844 62 198.348 61.168 196.642 59.504C194.978 57.84 194.146 55.408 194.146 52.208V35.76H189.41V28.4H191.778C193.058 28.4 193.932 28.1013 194.402 27.504C194.871 26.864 195.106 25.968 195.106 24.816V19.312H203.618V28.4H210.274V35.76H203.618V54.64H209.762V62H204.13ZM216.854 62V28.4H226.326V35.696H226.646C226.816 34.7573 227.115 33.8613 227.542 33.008C227.968 32.112 228.523 31.3227 229.206 30.64C229.931 29.9573 230.784 29.424 231.766 29.04C232.747 28.6133 233.899 28.4 235.222 28.4H236.886V37.232H234.518C231.744 37.232 229.675 37.5947 228.31 38.32C226.987 39.0453 226.326 40.3893 226.326 42.352V62H216.854ZM256.048 62.768C253.573 62.768 251.355 62.3627 249.392 61.552C247.472 60.7413 245.829 59.568 244.464 58.032C243.141 56.496 242.117 54.64 241.392 52.464C240.667 50.288 240.304 47.856 240.304 45.168C240.304 42.48 240.667 40.048 241.392 37.872C242.117 35.696 243.141 33.8613 244.464 32.368C245.829 30.832 247.472 29.6587 249.392 28.848C251.355 28.0373 253.573 27.632 256.048 27.632C258.523 27.632 260.72 28.0373 262.64 28.848C264.603 29.6587 266.245 30.832 267.568 32.368C268.933 33.8613 269.979 35.696 270.704 37.872C271.429 40.048 271.792 42.48 271.792 45.168C271.792 47.856 271.429 50.288 270.704 52.464C269.979 54.64 268.933 56.496 267.568 58.032C266.245 59.568 264.603 60.7413 262.64 61.552C260.72 62.3627 258.523 62.768 256.048 62.768ZM256.048 55.28C257.925 55.28 259.376 54.704 260.4 53.552C261.424 52.4 261.936 50.7573 261.936 48.624V41.776C261.936 39.6427 261.424 38 260.4 36.848C259.376 35.696 257.925 35.12 256.048 35.12C254.171 35.12 252.72 35.696 251.696 36.848C250.672 38 250.16 39.6427 250.16 41.776V48.624C250.16 50.7573 250.672 52.4 251.696 53.552C252.72 54.704 254.171 55.28 256.048 55.28ZM287.949 62C284.706 62 282.317 61.2107 280.781 59.632C279.288 58.0533 278.541 55.7707 278.541 52.784V14.64H288.013V54.64H292.237V62H287.949ZM306.824 62C303.581 62 301.192 61.2107 299.656 59.632C298.163 58.0533 297.416 55.7707 297.416 52.784V14.64H306.888V54.64H311.112V62H306.824ZM330.807 62.768C328.247 62.768 325.964 62.3627 323.959 61.552C321.954 60.6987 320.247 59.5253 318.839 58.032C317.474 56.496 316.428 54.64 315.703 52.464C315.02 50.288 314.679 47.856 314.679 45.168C314.679 42.5227 315.02 40.1333 315.703 38C316.386 35.824 317.388 33.968 318.711 32.432C320.076 30.896 321.74 29.7227 323.703 28.912C325.666 28.0587 327.906 27.632 330.423 27.632C333.196 27.632 335.564 28.1013 337.527 29.04C339.532 29.9787 341.154 31.2373 342.391 32.816C343.671 34.3947 344.588 36.2293 345.143 38.32C345.74 40.368 346.039 42.5227 346.039 44.784V47.6H324.471V48.112C324.471 50.3307 325.068 52.1013 326.263 53.424C327.458 54.704 329.335 55.344 331.895 55.344C333.858 55.344 335.458 54.96 336.695 54.192C337.932 53.3813 339.084 52.4213 340.151 51.312L344.887 57.2C343.394 58.9493 341.431 60.3147 338.999 61.296C336.61 62.2773 333.879 62.768 330.807 62.768ZM330.615 34.608C328.695 34.608 327.18 35.248 326.071 36.528C325.004 37.7653 324.471 39.4293 324.471 41.52V42.032H336.247V41.456C336.247 39.408 335.778 37.7653 334.839 36.528C333.943 35.248 332.535 34.608 330.615 34.608ZM352.729 62V28.4H362.201V35.696H362.521C362.691 34.7573 362.99 33.8613 363.417 33.008C363.843 32.112 364.398 31.3227 365.081 30.64C365.806 29.9573 366.659 29.424 367.641 29.04C368.622 28.6133 369.774 28.4 371.097 28.4H372.761V37.232H370.393C367.619 37.232 365.55 37.5947 364.185 38.32C362.862 39.0453 362.201 40.3893 362.201 42.352V62H352.729Z" fill="#0B0A32"/>
<circle cx="14.5" cy="23.5" r="8.5" fill="#ECECFF"/>
<circle cx="47.5" cy="23.5" r="8.5" fill="#151532" fill-opacity="0.8"/>
<ellipse cx="47.5" cy="53" rx="8.5" ry="9" fill="#56549A" fill-opacity="0.7"/>
<ellipse cx="14.5" cy="53" rx="8.5" ry="9" fill="#151532"/>
</g>
<defs>
<clipPath id="clip0_1_2">
<rect width="379" height="70" fill="white"/>
</clipPath>
</defs>
</svg>
